<svg width="800" height="400" viewBox="0 0 800 400" xmlns="http://www.w3.org/2000/svg"><defs><pattern id="satori_pattern_id_0" x="0" y="0" width="1" height="1" patternUnits="objectBoundingBox"><linearGradient id="satori_biid_0" x1="0" y1="0" x2="0" y2="1"><stop offset="0%" stop-color="#dbf4ff"/><stop offset="100%" stop-color="#fff1f1"/></linearGradient><rect x="0" y="0" width="800" height="400" fill="url(#satori_biid_0)"/></pattern></defs><rect x="0" y="0" width="800" height="400" fill="url(#satori_pattern_id_0)"/><clipPath id="satori_bct-id-0"><path d="M204.0 220.2L194.8 220.2L194.8 176.5L212.0 176.5Q217.0 176.5 220.5 178.3Q224.0 180.0 225.8 183.2Q227.6 186.5 227.6 190.8L227.6 190.8Q227.6 195.1 225.8 198.2Q223.9 201.4 220.4 203.0Q216.8 204.7 211.8 204.7L211.8 204.7L200.2 204.7L200.2 197.3L210.3 197.3Q212.9 197.3 214.7 196.6Q216.4 195.8 217.3 194.4Q218.1 192.9 218.1 190.8L218.1 190.8Q218.1 188.6 217.3 187.1Q216.4 185.6 214.7 184.8Q212.9 184.1 210.2 184.1L210.2 184.1L204.0 184.1L204.0 220.2ZM208.4 200.3L218.4 200.3L229.2 220.2L219.0 220.2L208.4 200.3ZM253.0 206.2L253.0 206.2L253.0 187.4L262.1 187.4L262.1 220.2L253.3 220.2L253.3 214.2L253.0 214.2Q251.9 217.1 249.3 218.8Q246.8 220.6 243.1 220.6L243.1 220.6Q239.8 220.6 237.3 219.1Q234.8 217.6 233.4 214.9Q232.0 212.1 232.0 208.3L232.0 208.3L232.0 187.4L241.1 187.4L241.1 206.7Q241.1 209.5 242.6 211.2Q244.2 212.9 246.7 212.9L246.7 212.9Q248.4 212.9 249.8 212.2Q251.2 211.4 252.1 209.9Q253.0 208.4 253.0 206.2ZM265.0 187.4L284.7 187.4L284.7 194.3L265.0 194.3L265.0 187.4ZM269.5 211.3L269.5 179.6L278.6 179.6L278.6 210.1Q278.6 211.4 278.9 212.1Q279.3 212.7 280.0 213.0Q280.7 213.3 281.6 213.3L281.6 213.3Q282.3 213.3 282.9 213.2Q283.5 213.1 283.9 213.0L283.9 213.0L285.3 219.8Q284.6 220.0 283.4 220.3Q282.2 220.5 280.4 220.6L280.4 220.6Q277.1 220.7 274.6 219.7Q272.2 218.7 270.8 216.6Q269.5 214.5 269.5 211.3L269.5 211.3ZM298.4 201.2L298.4 201.2L298.4 220.2L289.3 220.2L289.3 176.5L298.1 176.5L298.1 193.2L298.5 193.2Q299.6 190.3 302.1 188.7Q304.6 187.0 308.3 187.0L308.3 187.0Q311.7 187.0 314.2 188.5Q316.8 190.0 318.2 192.7Q319.6 195.5 319.6 199.3L319.6 199.3L319.6 220.2L310.5 220.2L310.5 200.9Q310.5 197.9 309.0 196.2Q307.5 194.5 304.7 194.5L304.7 194.5Q302.8 194.5 301.4 195.3Q300.0 196.1 299.2 197.6Q298.4 199.1 298.4 201.2ZM339.7 220.8L339.7 220.8Q334.6 220.8 331.0 218.7Q327.4 216.7 325.4 212.9Q323.4 209.1 323.4 203.9L323.4 203.9Q323.4 198.9 325.4 195.1Q327.4 191.3 330.9 189.1Q334.5 187.0 339.3 187.0L339.3 187.0Q342.5 187.0 345.3 188.0Q348.1 189.1 350.2 191.1Q352.3 193.2 353.5 196.3Q354.7 199.5 354.7 203.6L354.7 203.6L354.7 206.1L327.1 206.1L327.1 200.5L346.1 200.5Q346.1 198.5 345.3 197.0Q344.4 195.5 342.9 194.6Q341.4 193.8 339.5 193.8L339.5 193.8Q337.4 193.8 335.8 194.7Q334.2 195.7 333.3 197.3Q332.4 198.9 332.4 200.8L332.4 200.8L332.4 206.1Q332.4 208.6 333.3 210.3Q334.2 212.1 335.9 213.1Q337.5 214.0 339.8 214.0L339.8 214.0Q341.3 214.0 342.6 213.6Q343.8 213.2 344.7 212.3Q345.6 211.5 346.1 210.2L346.1 210.2L354.5 210.8Q353.9 213.8 351.9 216.1Q349.9 218.3 346.8 219.6Q343.7 220.8 339.7 220.8ZM367.7 220.2L358.6 220.2L358.6 187.4L367.4 187.4L367.4 193.1L367.8 193.1Q368.6 190.1 370.8 188.5Q372.9 187.0 375.6 187.0L375.6 187.0Q376.3 187.0 377.1 187.0Q377.9 187.1 378.5 187.3L378.5 187.3L378.5 195.3Q377.8 195.1 376.7 195.0Q375.6 194.8 374.6 194.8L374.6 194.8Q372.6 194.8 371.1 195.7Q369.5 196.6 368.6 198.1Q367.7 199.6 367.7 201.6L367.7 201.6L367.7 220.2ZM380.2 187.4L400.4 187.4L400.4 194.3L380.2 194.3L380.2 187.4ZM393.9 220.2L384.8 220.2L384.8 185.1Q384.8 181.5 386.2 179.2Q387.6 176.8 390.0 175.7Q392.5 174.5 395.5 174.5L395.5 174.5Q397.6 174.5 399.4 174.8Q401.1 175.1 402.0 175.4L402.0 175.4L400.3 182.2Q399.8 182.0 399.0 181.9Q398.2 181.7 397.4 181.7L397.4 181.7Q395.4 181.7 394.6 182.6Q393.9 183.6 393.9 185.2L393.9 185.2L393.9 220.2ZM417.6 220.8L417.6 220.8Q412.6 220.8 409.0 218.7Q405.4 216.6 403.4 212.8Q401.4 209.0 401.4 203.9L401.4 203.9Q401.4 198.9 403.4 195.1Q405.4 191.2 409.0 189.1Q412.6 187.0 417.6 187.0L417.6 187.0Q422.5 187.0 426.1 189.1Q429.7 191.2 431.7 195.1Q433.7 198.9 433.7 203.9L433.7 203.9Q433.7 209.0 431.7 212.8Q429.7 216.6 426.1 218.7Q422.5 220.8 417.6 220.8ZM417.6 213.8L417.6 213.8Q419.9 213.8 421.4 212.5Q422.9 211.2 423.7 209.0Q424.4 206.7 424.4 203.9L424.4 203.9Q424.4 201.0 423.7 198.8Q422.9 196.5 421.4 195.2Q419.9 193.9 417.6 193.9L417.6 193.9Q415.3 193.9 413.8 195.2Q412.2 196.5 411.4 198.8Q410.7 201.0 410.7 203.9L410.7 203.9Q410.7 206.7 411.4 209.0Q412.2 211.2 413.8 212.5Q415.3 213.8 417.6 213.8ZM446.7 220.2L437.6 220.2L437.6 187.4L446.4 187.4L446.4 193.1L446.7 193.1Q447.6 190.1 449.7 188.5Q451.8 187.0 454.6 187.0L454.6 187.0Q455.3 187.0 456.1 187.0Q456.8 187.1 457.4 187.3L457.4 187.3L457.4 195.3Q456.8 195.1 455.7 195.0Q454.5 194.8 453.6 194.8L453.6 194.8Q451.6 194.8 450.0 195.7Q448.5 196.6 447.6 198.1Q446.7 199.6 446.7 201.6L446.7 201.6L446.7 220.2ZM470.6 220.7L470.6 220.7Q466.9 220.7 463.9 218.8Q460.9 216.8 459.1 213.1Q457.4 209.3 457.4 203.8L457.4 203.8Q457.4 198.2 459.2 194.5Q461.0 190.7 464.0 188.9Q467.0 187.0 470.6 187.0L470.6 187.0Q473.4 187.0 475.2 187.9Q477.0 188.9 478.2 190.2Q479.3 191.6 479.9 192.9L479.9 192.9L480.2 192.9L480.2 176.5L489.3 176.5L489.3 220.2L480.3 220.2L480.3 214.9L479.9 214.9Q479.3 216.3 478.1 217.6Q477.0 218.9 475.1 219.8Q473.3 220.7 470.6 220.7ZM473.5 213.5L473.5 213.5Q475.7 213.5 477.2 212.3Q478.8 211.1 479.6 208.9Q480.4 206.7 480.4 203.8L480.4 203.8Q480.4 200.9 479.6 198.7Q478.8 196.6 477.2 195.4Q475.7 194.2 473.5 194.2L473.5 194.2Q471.3 194.2 469.7 195.4Q468.2 196.7 467.4 198.8Q466.6 201.0 466.6 203.8L466.6 203.8Q466.6 206.7 467.4 208.8Q468.2 211.0 469.8 212.2Q471.3 213.5 473.5 213.5ZM500.0 220.7L500.0 220.7Q497.9 220.7 496.4 219.2Q494.9 217.7 494.9 215.6L494.9 215.6Q494.9 213.5 496.4 212.0Q497.9 210.5 500.0 210.5L500.0 210.5Q502.0 210.5 503.6 212.0Q505.1 213.5 505.1 215.6L505.1 215.6Q505.1 217.0 504.4 218.2Q503.7 219.3 502.5 220.0Q501.4 220.7 500.0 220.7ZM522.6 220.7L522.6 220.7Q518.9 220.7 515.9 218.8Q512.8 216.8 511.1 213.1Q509.3 209.3 509.3 203.8L509.3 203.8Q509.3 198.2 511.1 194.5Q513.0 190.7 516.0 188.9Q519.0 187.0 522.6 187.0L522.6 187.0Q525.3 187.0 527.2 187.9Q529.0 188.9 530.2 190.2Q531.3 191.6 531.9 192.9L531.9 192.9L532.2 192.9L532.2 176.5L541.2 176.5L541.2 220.2L532.3 220.2L532.3 214.9L531.9 214.9Q531.3 216.3 530.1 217.6Q528.9 218.9 527.1 219.8Q525.3 220.7 522.6 220.7ZM525.5 213.5L525.5 213.5Q527.7 213.5 529.2 212.3Q530.7 211.1 531.5 208.9Q532.4 206.7 532.4 203.8L532.4 203.8Q532.4 200.9 531.6 198.7Q530.7 196.6 529.2 195.4Q527.7 194.2 525.5 194.2L525.5 194.2Q523.2 194.2 521.7 195.4Q520.2 196.7 519.4 198.8Q518.6 201.0 518.6 203.8L518.6 203.8Q518.6 206.7 519.4 208.8Q520.2 211.0 521.7 212.2Q523.2 213.5 525.5 213.5ZM561.6 220.8L561.6 220.8Q556.5 220.8 552.9 218.7Q549.3 216.7 547.3 212.9Q545.3 209.1 545.3 203.9L545.3 203.9Q545.3 198.9 547.3 195.1Q549.3 191.3 552.8 189.1Q556.4 187.0 561.2 187.0L561.2 187.0Q564.5 187.0 567.3 188.0Q570.1 189.1 572.2 191.1Q574.3 193.2 575.4 196.3Q576.6 199.5 576.6 203.6L576.6 203.6L576.6 206.1L549.0 206.1L549.0 200.5L568.1 200.5Q568.1 198.5 567.2 197.0Q566.4 195.5 564.9 194.6Q563.3 193.8 561.4 193.8L561.4 193.8Q559.3 193.8 557.7 194.7Q556.1 195.7 555.2 197.3Q554.3 198.9 554.3 200.8L554.3 200.8L554.3 206.1Q554.3 208.6 555.2 210.3Q556.1 212.1 557.8 213.1Q559.5 214.0 561.7 214.0L561.7 214.0Q563.2 214.0 564.5 213.6Q565.8 213.2 566.7 212.3Q567.5 211.5 568.0 210.2L568.0 210.2L576.4 210.8Q575.8 213.8 573.8 216.1Q571.8 218.3 568.7 219.6Q565.6 220.8 561.6 220.8ZM600.5 187.4L610.1 187.4L598.7 220.2L588.5 220.2L577.0 187.4L586.6 187.4L593.4 210.8L593.7 210.8L600.5 187.4Z "/></clipPath><defs><pattern id="satori_pattern_id-0_0" x="0" y="0" width="1" height="1" patternUnits="objectBoundingBox"><linearGradient id="satori_biid-0_0" x1="0" y1="0" x2="1" y2="0"><stop offset="0%" stop-color="rgb(121,40,202)"/><stop offset="100%" stop-color="rgb(255,0,128)"/></linearGradient><rect x="0" y="0" width="498" height="82" fill="url(#satori_biid-0_0)"/></pattern></defs><rect x="151" y="159" width="498" height="82" fill="url(#satori_pattern_id-0_0)" clip-path="url(#satori_bct-id-0)"/></svg>